<?xml version="1.0" encoding="UTF-8" standalone="no"?>
<!-- Generator: Adobe Illustrator 19.1.0, SVG Export Plug-In . SVG Version: 6.00 Build 0)  -->

<svg
   xmlns:dc="http://purl.org/dc/elements/1.1/"
   xmlns:cc="http://creativecommons.org/ns#"
   xmlns:rdf="http://www.w3.org/1999/02/22-rdf-syntax-ns#"
   xmlns:svg="http://www.w3.org/2000/svg"
   xmlns="http://www.w3.org/2000/svg"
   xmlns:sodipodi="http://sodipodi.sourceforge.net/DTD/sodipodi-0.dtd"
   xmlns:inkscape="http://www.inkscape.org/namespaces/inkscape"
   version="1.1"
   x="0px"
   y="0px"
   viewBox="0 0 300 300"
   xml:space="preserve"
   id="svg2"
   inkscape:version="0.92.3 (2405546, 2018-03-11)"
   sodipodi:docname="Logo_anniversaire_vert.svg"
   width="300"
   height="300"><metadata
     id="metadata40"><rdf:RDF><cc:Work
         rdf:about=""><dc:format>image/svg+xml</dc:format><dc:type
           rdf:resource="http://purl.org/dc/dcmitype/StillImage" /><dc:title></dc:title></cc:Work></rdf:RDF></metadata><defs
     id="defs38" /><sodipodi:namedview
     pagecolor="#ffffff"
     bordercolor="#666666"
     borderopacity="1"
     objecttolerance="10"
     gridtolerance="10"
     guidetolerance="10"
     inkscape:pageopacity="0"
     inkscape:pageshadow="2"
     inkscape:window-width="1920"
     inkscape:window-height="1027"
     id="namedview36"
     showgrid="false"
     fit-margin-top="0"
     fit-margin-left="0"
     fit-margin-right="0"
     fit-margin-bottom="0"
     inkscape:zoom="2.6074562"
     inkscape:cx="142.56085"
     inkscape:cy="140.14935"
     inkscape:window-x="-8"
     inkscape:window-y="-8"
     inkscape:window-maximized="1"
     inkscape:current-layer="g4228" /><style
     type="text/css"
     id="style4">
	.st0{fill:#E0995E;}
	.st1{opacity:0.2;}
	.st2{fill:#231F20;}
	.st3{fill:#4F5D73;}
	.st4{fill:#FFFFFF;}
</style><g
     style="opacity:0.2"
     id="g11"
     class="st1"
     transform="matrix(3,0,0,3,0,108)"><g
       id="g13" /></g><g
     id="g21"
     transform="matrix(3,0,0,3,0,108)"><g
       id="g23" /></g><g
     style="opacity:0.2"
     id="g27"
     class="st1"
     transform="matrix(3,0,0,3,0,108)" /><g
     id="Layer_2"
     transform="matrix(3,0,0,3,0,108)" /><g
     id="g4242"><circle
       style="fill:#00af89;fill-opacity:0.98728812"
       id="circle9"
       r="150"
       cy="150"
       cx="150"
       class="st0" /><g
       transform="matrix(2.8681599,0,0,2.8681599,6.5916099,-569.41431)"
       id="g4228"><g
         id="g31"
         transform="matrix(1.8305556,0,0,1.6,-8.5527787,200.025)"><path
           style="fill:#ffffff"
           inkscape:connector-curvature="0"
           id="path33"
           d="m 47.160849,27.06771 -30.349013,0 c -1.719777,0 -3.034901,1.3 -3.034901,3 l 0,19 c 0,1.7 1.315124,3 3.034901,3 l 30.349013,0 c 1.719777,0 3.034901,-1.3 3.034901,-3 l 0,-19 c 0,-1.7 -1.315124,-3 -3.034901,-3 z"
           class="st4"
           sodipodi:nodetypes="sssssssss" /></g><path
         style="fill:none;fill-rule:evenodd;stroke:#00af89;stroke-width:1.66666663;stroke-linecap:butt;stroke-linejoin:miter;stroke-miterlimit:4;stroke-dasharray:none;stroke-opacity:1"
         d="m 5.523738,262.89964 c 0,0 4.454508,-12.46594 11.1191,-12.46594 6.664592,0 4.454507,12.46594 11.119099,12.46594 6.664596,0 4.454532,-12.46595 11.11913,-12.46594 6.66459,0 4.45449,12.46594 11.11908,12.46594 6.664586,0 4.454486,-12.46594 11.119073,-12.46594 6.664597,-10e-6 4.454523,12.46594 11.11912,12.46594 6.664597,0 4.45453,-12.46595 11.119127,-12.46594 6.664586,0 11.11907,12.46594 11.11907,12.46594"
         id="path4161"
         inkscape:connector-curvature="0"
         sodipodi:nodetypes="csssssssc" /><g
         id="g4218"
         transform="matrix(0.33333333,0,0,0.33333333,-0.01514059,200)"><rect
           ry="3.5267124"
           rx="3.5267124"
           y="73.116997"
           x="142.5"
           height="60"
           width="15"
           id="rect4173"
           style="opacity:1;fill:#ffffff;fill-opacity:1;fill-rule:evenodd;stroke:none;stroke-width:20;stroke-linecap:butt;stroke-linejoin:round;stroke-miterlimit:4;stroke-dasharray:none;stroke-dashoffset:0;stroke-opacity:1" /><path
           sodipodi:nodetypes="sscss"
           style="fill:#ffffff;fill-opacity:1"
           id="path19"
           d="m 150,69.406769 c -9.1001,0 -16.45763,-7.5 -16.45763,-16.8 0,-14.7 16.45763,-25.2 16.45763,-25.2 0,0 16.45763,10.2 16.45763,25.2 0,9.3 -7.35753,16.8 -16.45763,16.8 z"
           class="st3"
           inkscape:connector-curvature="0" /></g><g
         id="g4222"
         transform="matrix(0.33333333,0,0,0.33333333,-5.5891927e-6,199.62192)"><rect
           ry="3.5267124"
           rx="3.5267124"
           y="74.251251"
           x="188.85997"
           height="60"
           width="15"
           id="rect4173-9"
           style="opacity:1;fill:#ffffff;fill-opacity:1;fill-rule:evenodd;stroke:none;stroke-width:20;stroke-linecap:butt;stroke-linejoin:round;stroke-miterlimit:4;stroke-dasharray:none;stroke-dashoffset:0;stroke-opacity:1" /><path
           sodipodi:nodetypes="sscss"
           style="fill:#ffffff;fill-opacity:1"
           id="path19-9"
           d="m 196.35996,70.541022 c -9.1001,0 -16.45763,-7.5 -16.45763,-16.8 0,-14.7 16.45763,-25.2 16.45763,-25.2 0,0 16.45763,10.2 16.45763,25.2 0,9.3 -7.35753,16.8 -16.45763,16.8 z"
           class="st3"
           inkscape:connector-curvature="0" /></g><g
         id="g4214"
         transform="matrix(0.33333333,0,0,0.33333333,0,199.62192)"><rect
           ry="3.5267124"
           rx="3.5267124"
           y="74.251244"
           x="96.049202"
           height="60"
           width="15"
           id="rect4173-8"
           style="opacity:1;fill:#ffffff;fill-opacity:1;fill-rule:evenodd;stroke:none;stroke-width:20;stroke-linecap:butt;stroke-linejoin:round;stroke-miterlimit:4;stroke-dasharray:none;stroke-dashoffset:0;stroke-opacity:1" /><path
           sodipodi:nodetypes="sscss"
           style="fill:#ffffff;fill-opacity:1"
           id="path19-96"
           d="m 103.5492,70.541022 c -9.100102,0 -16.457632,-7.5 -16.457632,-16.8 0,-14.7 16.457632,-25.2 16.457632,-25.2 0,0 16.45763,10.2 16.45763,25.2 0,9.3 -7.35753,16.8 -16.45763,16.8 z"
           class="st3"
           inkscape:connector-curvature="0" /></g></g></g></svg>